<svg width="14" height="14" viewBox="0 0 14 14" fill="none" xmlns="http://www.w3.org/2000/svg">
<path fill-rule="evenodd" clip-rule="evenodd" d="M7 5.92997L12.719 0.209967C12.865 0.0639667 13.058 -0.0090332 13.25 -0.0090332C13.654 -0.0090332 14 0.314966 14 0.739966C14 0.932966 13.927 1.12497 13.781 1.27197L8.061 6.99097L13.78 12.71C13.927 12.857 14 13.049 14 13.241C14 13.668 13.651 13.991 13.25 13.991C13.058 13.991 12.865 13.918 12.719 13.772L7 8.05297L1.281 13.772C1.135 13.918 0.942 13.991 0.75 13.991C0.349 13.991 0 13.668 0 13.241C0 13.049 0.0729998 12.857 0.22 12.71L5.939 6.99097L0.219 1.27197C0.0729999 1.12497 0 0.932966 0 0.739966C0 0.314966 0.346 -0.0090332 0.75 -0.0090332C0.942 -0.0090332 1.135 0.0639667 1.281 0.209967L7 5.92997Z" fill="black"/>
</svg>
