<svg width="19" height="16" viewBox="0 0 19 16" fill="currentColor" xmlns="http://www.w3.org/2000/svg">
<path fill-rule="evenodd" clip-rule="evenodd" d="M6.40693 0.000101899C6.43791 0.000161899 6.46894 0.00021181 6.5 0.00021181C6.5311 0.00021181 6.5621 0.000161899 6.5931 0.000101899C6.9618 -0.000508101 7.3242 -0.00110838 7.647 0.0853916C8.5098 0.316562 9.1836 0.990432 9.4148 1.85316C9.5013 2.176 9.5007 2.53841 9.5001 2.90713C9.5001 2.93812 9.5 2.96915 9.5 3.00021H17.5C18.0523 3.00021 18.5 3.44792 18.5 4.00021C18.5 4.55249 18.0523 5.00021 17.5 5.00021H9.5C9.5 5.03127 9.5001 5.0623 9.5001 5.09329C9.5007 5.46201 9.5013 5.82442 9.4148 6.1473C9.1836 7.01 8.5098 7.6839 7.647 7.915C7.3242 8.0015 6.9618 8.0009 6.5931 8.0003C6.5621 8.0003 6.5311 8.0002 6.5 8.0002C6.46894 8.0002 6.43791 8.0003 6.40692 8.0003C6.0382 8.0009 5.67579 8.0015 5.35295 7.915C4.49022 7.6839 3.81635 7.01 3.58519 6.1473C3.49868 5.82441 3.49928 5.46201 3.4999 5.09328C3.49995 5.0623 3.5 5.03126 3.5 5.00021H1.5C0.94772 5.00021 0.5 4.55249 0.5 4.00021C0.5 3.44792 0.94772 3.00021 1.5 3.00021H3.5C3.5 2.96915 3.49995 2.93812 3.4999 2.90713C3.49928 2.53841 3.49868 2.176 3.58519 1.85316C3.81635 0.990432 4.49022 0.316562 5.35295 0.0853916C5.67579 -0.00110838 6.0382 -0.000508101 6.40693 0.000101899ZM5.99861 2.00556C5.89195 2.01042 5.86685 2.01825 5.87059 2.01724C5.69804 2.06348 5.56327 2.19825 5.51704 2.3708C5.5162 2.37431 5.50963 2.40503 5.50535 2.49881C5.50024 2.61084 5.5 2.75865 5.5 3.00021V5.00021C5.5 5.24176 5.50024 5.38957 5.50535 5.5016C5.51021 5.60826 5.51804 5.63335 5.51704 5.62962C5.56327 5.80216 5.69804 5.93694 5.87059 5.98317C5.86685 5.98217 5.89195 5.98999 5.99861 5.99486C6.11063 5.99997 6.25844 6.0002 6.5 6.0002C6.7416 6.0002 6.8894 5.99997 7.0014 5.99486C7.108 5.98999 7.1331 5.98217 7.1294 5.98317C7.302 5.93694 7.4367 5.80216 7.483 5.62962C7.482 5.63335 7.4898 5.60826 7.4946 5.5016C7.4998 5.38957 7.5 5.24176 7.5 5.00021V3.00021C7.5 2.75865 7.4998 2.61084 7.4946 2.49881C7.4898 2.39216 7.482 2.36706 7.483 2.3708M5.99861 2.00556C6.11063 2.00045 6.25844 2.00021 6.5 2.00021L5.99861 2.00556ZM6.5 2.00021C6.7416 2.00021 6.8894 2.00045 7.0014 2.00556L6.5 2.00021ZM7.0014 2.00556C7.0952 2.00983 7.1259 2.0164 7.1294 2.01724L7.0014 2.00556ZM12.4069 8.0001C12.4379 8.0002 12.4689 8.0002 12.5 8.0002C12.5311 8.0002 12.5621 8.0002 12.5931 8.0001C12.9618 7.9995 13.3242 7.9989 13.647 8.0854C14.5098 8.3166 15.1836 8.9904 15.4148 9.8532C15.5013 10.176 15.5007 10.5384 15.5001 10.9071C15.5001 10.9381 15.5 10.9691 15.5 11.0002H17.5C18.0523 11.0002 18.5 11.4479 18.5 12.0002C18.5 12.5525 18.0523 13.0002 17.5 13.0002H15.5C15.5 13.0313 15.5001 13.0623 15.5001 13.0933C15.5007 13.462 15.5013 13.8244 15.4148 14.1473C15.1836 15.01 14.5098 15.6839 13.647 15.915C13.3242 16.0015 12.9618 16.0009 12.5931 16.0003C12.5621 16.0003 12.5311 16.0002 12.5 16.0002C12.4689 16.0002 12.4379 16.0003 12.4069 16.0003C12.0382 16.0009 11.6758 16.0015 11.353 15.915C10.4902 15.6839 9.8164 15.01 9.5852 14.1473C9.4987 13.8244 9.4993 13.462 9.4999 13.0933C9.4999 13.0623 9.5 13.0313 9.5 13.0002H1.5C0.94772 13.0002 0.5 12.5525 0.5 12.0002C0.5 11.4479 0.94772 11.0002 1.5 11.0002H9.5C9.5 10.9692 9.4999 10.9381 9.4999 10.9071C9.4993 10.5384 9.4987 10.176 9.5852 9.8532C9.8164 8.9904 10.4902 8.3166 11.353 8.0854C11.6758 7.9989 12.0382 7.9995 12.4069 8.0001ZM11.9986 10.0056C11.892 10.0104 11.8669 10.0182 11.8706 10.0172C11.698 10.0635 11.5633 10.1983 11.517 10.3708C11.518 10.3671 11.5102 10.3922 11.5054 10.4988C11.5002 10.6108 11.5 10.7587 11.5 11.0002V13.0002C11.5 13.2418 11.5002 13.3896 11.5054 13.5016C11.5102 13.6083 11.518 13.6334 11.517 13.6296C11.5633 13.8022 11.698 13.9369 11.8706 13.9832C11.8669 13.9822 11.892 13.99 11.9986 13.9949C12.1106 14 12.2584 14.0002 12.5 14.0002C12.7416 14.0002 12.8894 14 13.0014 13.9949C13.108 13.99 13.1331 13.9822 13.1294 13.9832C13.302 13.9369 13.4367 13.8022 13.483 13.6296C13.482 13.6334 13.4898 13.6083 13.4946 13.5016C13.4998 13.3896 13.5 13.2418 13.5 13.0002V11.0002C13.5 10.7587 13.4998 10.6108 13.4946 10.4988C13.4898 10.3922 13.482 10.3671 13.483 10.3708C13.4367 10.1983 13.302 10.0635 13.1294 10.0172C13.1331 10.0182 13.108 10.0104 13.0014 10.0056C12.8894 10.0004 12.7416 10.0002 12.5 10.0002C12.2584 10.0002 12.1106 10.0004 11.9986 10.0056Z" fill="#currentColor"/>
</svg>
