<svg width="52" height="48" viewBox="0 0 52 48" fill="none" xmlns="http://www.w3.org/2000/svg">
<path d="M29.5512 8.26619C32.0136 9.5161 31.9327 12.7311 30.2396 14.9126C26.2881 20.0041 25.9833 24.2583 30.2547 29.8443C31.9321 32.0379 32.0136 35.2576 29.5512 36.5075C23.6091 39.5237 16.1611 38.548 11.1934 33.5803C5.01146 27.3983 5.01146 17.3754 11.1934 11.1934C16.1611 6.2257 23.6091 5.24996 29.5512 8.26619Z" fill="#619ABC"/>
<path d="M35.1226 30.2469L34.4388 29.5731C32.6497 27.81 32.6285 24.9304 34.3915 23.1412C36.1546 21.352 39.0342 21.3309 40.8234 23.0939L44.4441 26.6617C48.2329 30.3952 48.2778 36.4933 44.5443 40.2821L39.9437 44.951C38.2843 46.6349 35.5741 46.6548 33.8902 44.9955C32.2062 43.3362 32.1863 40.6259 33.8456 38.942L35.1767 37.5912C37.1898 35.5482 37.1656 32.26 35.1226 30.2469Z" fill="#9AC4DC"/>
</svg>
